#!OML:ASF I:\Actors\actors\Patient Classification 1\Patient 1\Session 1\Subject1.ASF
:FULLY-SPECIFIED
:DEGREES
221
root -0.39473 17.5529 7.35081 5.55287 -2.40273 -7.35472
lowerback 2.78576 1.80553 5.73592
upperback -7.16869 2.97741 1.53125
thorax -8.94481 1.11895 -1.8874
lowerneck -10.5463 1.23937 6.35564
upperneck 30.0231 2.74628 -7.8479
head 11.7051 1.01638 -3.68658
rclavicle -1.42131e-014 -5.18828e-014
rhumerus -19.7413 42.3197 -93.3682
rradius 95.0303
rwrist -2.99928
rhand -3.99363 -57.0927
rfingers 7.12502
rthumb 21.7601 -445.89
lclavicle -1.42131e-014 -5.18828e-014
lhumerus -31.9257 -25.5441 102.807
lradius 86.1599
lwrist 10.027
lhand -35.1351 -4.07917
lfingers 7.12502
lthumb -8.27516 25.7388
rfemur -1.19961 24.0564 25.3386
rtibia 2.99627
rfoot -10.6392 -20.8916
rtoes 0.0596077
lfemur 7.45537 -38.734 -16.1223
ltibia -3.59357
lfoot -14.7879 48.0048
ltoes 8.28646
222
root -0.396004 17.5645 7.33333 5.87188 -2.44005 -7.7627
lowerback 2.90561 1.83453 6.29186
upperback -7.28375 3.07173 1.49958
thorax -9.1151 1.11666 -2.24463
lowerneck -10.5222 1.35881 6.63654
upperneck 30.16 2.87226 -7.87051
head 11.7707 1.10362 -3.7337
rclavicle 3.62782e-015 1.0138e-014
rhumerus -19.1435 42.07 -93.3847
rradius 98.39
rwrist -0.286921
rhand -7.73101 -53.9478
rfingers 7.12502
rthumb 18.1676 -443.119
lclavicle 3.62782e-015 1.0138e-014
lhumerus -32.0715 -25.3948 102.613
lradius 86.2832
lwrist 10.5041
lhand -35.144 -3.75979
lfingers 7.12502
lthumb -8.28378 26.0578
rfemur -1.7701 24.5543 25.6339
rtibia 3.2293
rfoot -10.6615 -21.2577
rtoes 0.290393
lfemur 6.78602 -38.5281 -15.0559
ltibia -3.66184
lfoot -14.6974 47.8525
ltoes 8.30872
223
root -0.396761 17.5654 7.34333 5.91675 -2.18379 -7.42772
lowerback 2.80516 1.80617 6.07914
upperback -7.29607 2.99265 1.27794
thorax -9.07023 1.0854 -2.35027
lowerneck -11.0967 1.40926 5.99438
upperneck 31.0249 2.77616 -6.77251
head 12.2074 1.11263 -3.24242
rclavicle 1.3418e-014 1.66979e-014
rhumerus -18.6377 41.4433 -93.4789
rradius 100.873
rwrist 3.52956
rhand -11.7823 -49.3225
rfingers 7.12502
rthumb 14.2668 -438.812
lclavicle 1.3418e-014 1.66979e-014
lhumerus -32.2499 -25.4046 102.567
lradius 86.2941
lwrist 11.0991
lhand -35.0214 -3.40913
lfingers 7.12502
lthumb -8.16545 26.4131
rfemur -1.60924 24.5602 25.2866
rtibia 2.93207
rfoot -10.6347 -21.563
rtoes 0.538266
lfemur 6.66507 -38.5771 -15.4012
ltibia -3.62713
lfoot -14.5504 47.6487
ltoes 8.21986
224
root -0.395266 17.5639 7.35404 5.88016 -1.99823 -7.12916
lowerback 2.80586 1.80318 5.7975
upperback -7.31834 2.95736 1.12834
thorax -9.0995 1.08083 -2.34966
lowerneck -11.4275 1.43132 5.60809
upperneck 31.5906 2.66721 -5.99055
head 12.4853 1.11316 -2.90429
rclavicle -2.36554e-014 1.59028e-015
rhumerus -18.3215 40.7786 -93.6093
rradius 101.629
rwrist 8.16149
rhand -18.4823 -40.6879
rfingers 7.12502
rthumb 7.80485 -430.524
lclavicle -2.36554e-014 1.59028e-015
lhumerus -32.3823 -25.4512 102.654
lradius 86.1521
lwrist 11.4415
lhand -35.0261 -3.40727
lfingers 7.12502
lthumb -8.16999 26.4148
rfemur -1.36231 24.3535 24.9974
rtibia 2.65293
rfoot -10.5599 -21.6016
rtoes 0.563529
lfemur 6.76953 -38.6999 -15.8881
ltibia -3.61029
lfoot -14.478 47.5862
ltoes 8.22224
225
root -0.393298 17.5647 7.35282 5.90479 -2.00715 -7.16813
lowerback 2.88881 1.84068 5.79669
upperback -7.35603 3.01333 1.091
thorax -9.18406 1.10328 -2.39837
lowerneck -11.4948 1.44428 5.53392
upperneck 31.7443 2.58189 -5.5976
head 12.5513 1.11588 -2.75476
rclavicle 1.60519e-014 1.11319e-014
rhumerus -18.2055 40.9649 -93.8323
rradius 101.032
rwrist 10.7977
rhand -27.7319 -34.9982
rfingers 7.12502
rthumb -1.12699 -424.975
lclavicle 1.60519e-014 1.11319e-014
lhumerus -32.3581 -25.5283 102.703
lradius 85.9421
lwrist 11.4289
lhand -35.2793 -3.60547
lfingers 7.12502
lthumb -8.41431 26.2069
rfemur -1.39867 24.3203 25.0182
rtibia 2.65918
rfoot -10.5333 -21.5614
rtoes 0.568314
lfemur 6.75959 -38.7478 -15.8488
ltibia -3.61643
lfoot -14.5233 47.6383
ltoes 8.37245
226
root -0.392485 17.5643 7.35178 5.89599 -2.03549 -7.21784
lowerback 2.89617 1.86085 5.72999
upperback -7.33112 3.03616 1.10841
thorax -9.16223 1.12116 -2.34501
lowerneck -11.6107 1.45236 5.43534
upperneck 31.8035 2.51586 -5.29217
head 12.5911 1.11214 -2.62957
rclavicle -3.22528e-014 -2.06736e-014
rhumerus -18.116 41.6624 -93.8023
rradius 99.1357
rwrist 16.434
rhand -34.2224 -36.6464
rfingers 7.12502
rthumb -7.39422 -426.497
lclavicle -3.22528e-014 -2.06736e-014
lhumerus -32.1541 -25.6309 102.731
lradius 85.6793
lwrist 11.1098
lhand -35.6594 -3.83705
lfingers 7.12502
lthumb -8.78109 25.9603
rfemur -1.40625 24.3191 25.0698
rtibia 2.67762
rfoot -10.5279 -21.5352
rtoes 0.648338
lfemur 6.77493 -38.713 -15.7961
ltibia -3.62684
lfoot -14.4936 47.6405
ltoes 8.27531
227
root -0.391502 17.5618 7.35101 5.80206 -2.08853 -7.27961
lowerback 2.91454 1.88934 5.65333
upperback -7.25127 3.06885 1.14353
thorax -9.08666 1.14784 -2.26776
lowerneck -11.7454 1.43721 5.35569
upperneck 31.803 2.43253 -5.06509
head 12.6102 1.09262 -2.53911
rclavicle 6.01324e-015 3.45885e-014
rhumerus -18.0517 42.2168 -93.4477
rradius 95.9139
rwrist 24.7902
rhand -43.8936 -49.5638
rfingers 7.12502
rthumb -16.7187 -438.864
lclavicle 6.01324e-015 3.45885e-014
lhumerus -31.8658 -25.7909 102.735
lradius 85.419
lwrist 10.7002
lhand -36.0268 -4.05312
lfingers 7.12502
lthumb -9.13569 25.729
rfemur -1.3091 24.3163 25.1775
rtibia 2.68496
rfoot -10.5468 -21.4836
rtoes 0.693326
lfemur 6.92539 -38.6511 -15.8106
ltibia -3.65644
lfoot -14.4242 47.6448
ltoes 8.06587
228
root -0.391117 17.5589 7.34966 5.65501 -2.17911 -7.37164
lowerback 2.97095 1.96193 5.62939
upperback -7.16396 3.16445 1.1415
thorax -9.01663 1.19982 -2.26679
lowerneck -11.9116 1.37241 5.16777
upperneck 31.8771 2.25031 -4.66776
head 12.6576 1.03817 -2.3793
rclavicle 1.90833e-014 4.09496e-014
rhumerus -18.3359 43.1398 -93.2845
rradius 91.6731
rwrist 27.6081
rhand -41.252 -53.7479
rfingers 7.12502
rthumb -14.1745 -443.244
lclavicle 1.90833e-014 4.09496e-014
lhumerus -31.6588 -26.0772 102.712
lradius 85.3075
lwrist 10.5442
lhand -36.2151 -4.19305
lfingers 7.12502
lthumb -9.31735 25.5811
rfemur -1.16536 24.2929 25.3473
rtibia 2.7271
rfoot -10.5639 -21.3785
rtoes 0.693884
lfemur 7.17522 -38.5681 -15.8466
ltibia -3.70837
lfoot -14.3534 47.6723
ltoes 7.98062
229
root -0.390304 17.5571 7.34878 5.54089 -2.26194 -7.3828
lowerback 2.99644 2.03869 5.54406
upperback -7.11789 3.25779 1.10171
thorax -8.9744 1.25197 -2.27094
lowerneck -12.0858 1.31286 4.96034
upperneck 32.0685 2.07932 -4.25359
head 12.7574 0.989801 -2.2104
rclavicle -4.96962e-017 -6.75868e-015
rhumerus -18.6595 44.4557 -93.4027
rradius 87.6088
rwrist 23.2668
rhand -34.9673 -49.7331
rfingers 7.12502
rthumb -8.11325 -439.557
lclavicle -4.96962e-017 -6.75868e-015
lhumerus -31.6013 -26.313 102.701
lradius 85.3433
lwrist 10.6055
lhand -36.1728 -4.29108
lfingers 7.12502
lthumb -9.27659 25.4848
rfemur -1.08733 24.1234 25.3826
rtibia 2.79955
rfoot -10.5355 -21.1618
rtoes 0.553506
lfemur 7.37187 -38.5081 -15.9666
ltibia -3.72976
lfoot -14.361 47.7089
ltoes 8.09125
230
root -0.386529 17.5548 7.34938 5.43211 -2.29336 -7.29534
lowerback 3.01722 2.05167 5.38143
upperback -7.08457 3.26136 1.08353
thorax -8.95511 1.26551 -2.20057
lowerneck -12.1814 1.32154 4.94274
upperneck 32.2009 2.05068 -4.11547
head 12.8305 0.992811 -2.16038
rclavicle -2.54444e-014 -8.34896e-015
rhumerus -18.7896 46.1465 -93.6697
rradius 84.5227
rwrist 12.8352
rhand -10.2974 -43.6383
rfingers 7.12502
rthumb 15.6973 -433.022
lclavicle -2.54444e-014 -8.34896e-015
lhumerus -31.6334 -26.255 102.715
lradius 85.488
lwrist 10.6648
lhand -36.0857 -4.41653
lfingers 7.12502
lthumb -9.19251 25.3631
rfemur -1.0162 23.8835 25.2823
rtibia 2.86772
rfoot -10.5427 -20.9328
rtoes 0.41255
lfemur 7.53448 -38.5824 -16.2446
ltibia -3.65081
lfoot -14.4829 47.7914
ltoes 8.21539
231
root -0.382001 17.5518 7.34961 5.32892 -2.30031 -7.2299
lowerback 3.05747 2.04633 5.25598
upperback -7.04615 3.24488 1.07339
thorax -8.9423 1.26673 -2.1411
lowerneck -12.3014 1.34776 4.93305
upperneck 32.308 2.04444 -3.98091
head 12.8999 1.00592 -2.10921
rclavicle -5.96354e-016 1.11319e-014
rhumerus -18.1699 46.6165 -93.2545
rradius 82.0772
rwrist 2.42597
rhand 2.86905 -50.2926
rfingers 7.12502
rthumb 28.3354 -438.169
lclavicle -5.96354e-016 1.11319e-014
lhumerus -31.6839 -26.1228 102.725
lradius 85.6469
lwrist 10.6399
lhand -36.1781 -4.58444
lfingers 7.12502
lthumb -9.28164 25.1912
rfemur -0.928422 23.7734 25.2198
rtibia 2.90527
rfoot -10.5821 -20.8332
rtoes 0.398796
lfemur 7.62101 -38.5563 -16.4341
ltibia -3.53663
lfoot -14.4749 47.7478
ltoes 8.0053
232
root -0.379138 17.5499 7.3486 5.27711 -2.33951 -7.24999
lowerback 3.09326 2.1249 5.26255
upperback -6.99234 3.34552 1.00105
thorax -8.89187 1.31493 -2.23162
lowerneck -12.4159 1.2981 4.87989
upperneck 32.2582 1.90614 -3.76149
head 12.8932 0.965583 -2.0332
rclavicle 7.55382e-015 2.78299e-015
rhumerus -18.1576 48.061 -93.2792
rradius 80.5869
rwrist -10.7045
rhand -2.83078 -53.5526
rfingers 7.12502
rthumb 22.8764 -442.216
lclavicle 7.55382e-015 2.78299e-015
lhumerus -31.7042 -26.2579 102.709
lradius 85.7691
lwrist 10.496
lhand -36.2607 -4.59292
lfingers 7.12502
lthumb -9.36137 25.1792
rfemur -0.902212 23.7499 25.2475
rtibia 2.94448
rfoot -10.5718 -20.7674
rtoes 0.227255
lfemur 7.60075 -38.2452 -16.3634
ltibia -3.52525
lfoot -14.2311 47.5123
ltoes 7.56715
233
root -0.376434 17.549 7.34798 5.29742 -2.37835 -7.30746
lowerback 3.15823 2.27335 5.38571
upperback -6.9377 3.54649 0.866754
thorax -8.8404 1.40187 -2.46335
lowerneck -12.3838 1.17797 4.94968
upperneck 31.8458 1.672 -3.66839
head 12.7004 0.879836 -2.03508
rclavicle 5.61567e-015 2.62396e-014
rhumerus -18.4467 48.9153 -93.4107
rradius 81.8765
rwrist -17.088
rhand -9.46163 -56.4602
rfingers 7.12502
rthumb 16.502 -445.778
lclavicle 5.61567e-015 2.62396e-014
lhumerus -31.7066 -26.6186 102.678
lradius 85.8982
lwrist 10.2236
lhand -36.1975 -4.60505
lfingers 7.12502
lthumb -9.30041 25.1698
rfemur -0.947695 23.7402 25.2967
rtibia 2.98076
rfoot -10.5619 -20.6989
rtoes 0.1491
lfemur 7.54448 -38.0281 -16.2264
ltibia -3.56414
lfoot -14.1116 47.375
ltoes 7.41929
234
root -0.37287 17.5501 7.34828 5.41737 -2.38154 -7.30225
lowerback 3.24561 2.38676 5.45822
upperback -6.9452 3.70212 0.744706
thorax -8.87619 1.46686 -2.65246
lowerneck -12.3507 1.0987 5.00743
upperneck 31.445 1.52695 -3.64816
head 12.5197 0.822132 -2.05037
rclavicle -1.81391e-014 -1.47101e-014
rhumerus -20.5 51.6719 -95.2434
rradius 86.6627
rwrist -26.7718
rhand -28.8873 -58.0115
rfingers 7.12502
rthumb -2.24283 -447.98
lclavicle -1.81391e-014 -1.47101e-014
lhumerus -31.7724 -26.8353 102.652
lradius 85.9966
lwrist 9.83162
lhand -36.1471 -4.75459
lfingers 7.12502
lthumb -9.25175 25.0224
rfemur -1.05249 23.8527 25.2412
rtibia 2.9435
rfoot -10.5757 -20.7792
rtoes 0.337684
lfemur 7.42757 -38.0822 -16.166
ltibia -3.61638
lfoot -14.1333 47.4285
ltoes 7.56947
